<svg width="25" height="27" viewBox="0 0 25 27" fill="none" xmlns="http://www.w3.org/2000/svg">
<g id="Phone" clip-path="url(#clip0_2001_29)">
<path id="Icon" d="M22.6083 18.4882V21.7662C22.6095 22.0705 22.5508 22.3718 22.4362 22.6506C22.3215 22.9294 22.1534 23.1797 21.9425 23.3854C21.7316 23.5912 21.4826 23.7478 21.2115 23.8453C20.9404 23.9428 20.6531 23.979 20.368 23.9516C17.2058 23.5862 14.1682 22.4373 11.4994 20.5971C9.01643 18.9194 6.9113 16.6811 5.33351 14.041C3.59676 11.1904 2.51595 7.94487 2.17863 4.5674C2.15295 4.26523 2.18672 3.9607 2.2778 3.67317C2.36887 3.38565 2.51526 3.12144 2.70763 2.89736C2.9 2.67329 3.13414 2.49426 3.39515 2.37167C3.65616 2.24909 3.93832 2.18563 4.22365 2.18535H7.3066C7.80533 2.18013 8.28882 2.36791 8.66696 2.7137C9.04511 3.05948 9.2921 3.53967 9.3619 4.06476C9.49202 5.11381 9.73335 6.14384 10.0813 7.1352C10.2195 7.5263 10.2494 7.95134 10.1675 8.35997C10.0855 8.76859 9.89511 9.14367 9.61881 9.44076L8.3137 10.8285C9.77662 13.5641 11.9068 15.8291 14.4796 17.3846L15.7847 15.9969C16.0641 15.7031 16.4169 15.5006 16.8012 15.4135C17.1855 15.3263 17.5852 15.3581 17.9531 15.5052C18.8854 15.8751 19.8541 16.1317 20.8407 16.27C21.3399 16.3449 21.7958 16.6123 22.1217 17.0212C22.4476 17.4302 22.6208 17.9523 22.6083 18.4882Z" stroke="#506FA5" stroke-width="4" stroke-linecap="round" stroke-linejoin="round"/>
</g>
<defs>
<clipPath id="clip0_2001_29">
<rect width="24.6636" height="26.2244" fill="white"/>
</clipPath>
</defs>
</svg>
