<svg width="25" height="26" viewBox="0 0 25 26" fill="none" xmlns="http://www.w3.org/2000/svg">
<g id="location_on">
<path id="icon" d="M12.3319 23.8068C12.0921 23.8068 11.8865 23.7346 11.7153 23.5903C11.544 23.446 11.4155 23.2567 11.3299 23.0222C11.0045 22.0122 10.5934 21.0654 10.0967 20.1816C9.61715 19.2979 8.94061 18.2609 8.06711 17.0705C7.19361 15.8802 6.48281 14.744 5.93473 13.6618C5.40378 12.5797 5.13831 11.2721 5.13831 9.73912C5.13831 7.62898 5.83197 5.84347 7.2193 4.3826C8.62375 2.9037 10.3279 2.16425 12.3319 2.16425C14.3358 2.16425 16.0314 2.9037 17.4187 4.3826C18.8232 5.84347 19.5254 7.62898 19.5254 9.73912C19.5254 11.3803 19.2257 12.751 18.6262 13.8512C18.0439 14.9333 17.3673 16.0064 16.5966 17.0705C15.6717 18.3691 14.9695 19.4512 14.4899 20.3169C14.0275 21.1646 13.6421 22.0663 13.3338 23.0222C13.2482 23.2747 13.1112 23.4731 12.9228 23.6174C12.7515 23.7436 12.5545 23.8068 12.3319 23.8068ZM12.3319 12.4444C13.0512 12.4444 13.6592 12.1829 14.1559 11.6599C14.6526 11.1369 14.901 10.4966 14.901 9.73912C14.901 8.98164 14.6526 8.34138 14.1559 7.81835C13.6592 7.29532 13.0512 7.03381 12.3319 7.03381C11.6125 7.03381 11.0045 7.29532 10.5078 7.81835C10.0111 8.34138 9.76273 8.98164 9.76273 9.73912C9.76273 10.4966 10.0111 11.1369 10.5078 11.6599C11.0045 12.1829 11.6125 12.4444 12.3319 12.4444Z" fill="#506FA5"/>
</g>
</svg>
